# Blender 4.1.1
# www.blender.org
mtllib arrow.mtl
o Cylinder
v 0.000000 -0.100000 1.000000
v 0.000000 -0.100000 -0.000000
v 0.019509 -0.098079 1.000000
v 0.019509 -0.098079 -0.000000
v 0.038268 -0.092388 1.000000
v 0.038268 -0.092388 -0.000000
v 0.055557 -0.083147 1.000000
v 0.055557 -0.083147 -0.000000
v 0.070711 -0.070711 1.000000
v 0.070711 -0.070711 -0.000000
v 0.083147 -0.055557 1.000000
v 0.083147 -0.055557 -0.000000
v 0.092388 -0.038269 1.000000
v 0.092388 -0.038268 -0.000000
v 0.098079 -0.019509 1.000000
v 0.098079 -0.019509 -0.000000
v 0.100000 -0.000000 1.000000
v 0.100000 0.000000 0.000000
v 0.098079 0.019509 1.000000
v 0.098079 0.019509 0.000000
v 0.092388 0.038268 1.000000
v 0.092388 0.038268 0.000000
v 0.083147 0.055557 1.000000
v 0.083147 0.055557 0.000000
v 0.070711 0.070710 1.000000
v 0.070711 0.070711 0.000000
v 0.055557 0.083147 1.000000
v 0.055557 0.083147 0.000000
v 0.038268 0.092388 1.000000
v 0.038268 0.092388 0.000000
v 0.019509 0.098078 1.000000
v 0.019509 0.098079 0.000000
v 0.000000 0.100000 1.000000
v 0.000000 0.100000 0.000000
v -0.019509 0.098078 1.000000
v -0.019509 0.098079 0.000000
v -0.038268 0.092388 1.000000
v -0.038268 0.092388 0.000000
v -0.055557 0.083147 1.000000
v -0.055557 0.083147 0.000000
v -0.070711 0.070710 1.000000
v -0.070711 0.070711 0.000000
v -0.083147 0.055557 1.000000
v -0.083147 0.055557 0.000000
v -0.092388 0.038268 1.000000
v -0.092388 0.038268 0.000000
v -0.098079 0.019509 1.000000
v -0.098079 0.019509 0.000000
v -0.100000 -0.000000 1.000000
v -0.100000 0.000000 0.000000
v -0.098079 -0.019509 1.000000
v -0.098079 -0.019509 -0.000000
v -0.092388 -0.038269 1.000000
v -0.092388 -0.038268 -0.000000
v -0.083147 -0.055557 1.000000
v -0.083147 -0.055557 -0.000000
v -0.070711 -0.070711 1.000000
v -0.070711 -0.070711 -0.000000
v -0.055557 -0.083147 1.000000
v -0.055557 -0.083147 -0.000000
v -0.038268 -0.092388 1.000000
v -0.038268 -0.092388 -0.000000
v -0.019509 -0.098079 1.000000
v -0.019509 -0.098079 -0.000000
v 0.000000 0.250000 1.000000
v 0.048773 0.245196 1.000000
v 0.095671 0.230970 1.000000
v 0.138893 0.207867 1.000000
v 0.176777 0.176776 1.000000
v 0.207867 0.138892 1.000000
v 0.230970 0.095671 1.000000
v 0.245196 0.048772 1.000000
v 0.250000 -0.000000 1.000000
v 0.245196 -0.048773 1.000000
v 0.230970 -0.095671 1.000000
v 0.207867 -0.138893 1.000000
v 0.176777 -0.176777 1.000000
v 0.138893 -0.207868 1.000000
v 0.095671 -0.230970 1.000000
v 0.048773 -0.245197 1.000000
v 0.000000 -0.250000 1.000000
v -0.048773 -0.245197 1.000000
v -0.095671 -0.230970 1.000000
v -0.138893 -0.207868 1.000000
v -0.176777 -0.176777 1.000000
v -0.207867 -0.138893 1.000000
v -0.230970 -0.095671 1.000000
v -0.245196 -0.048773 1.000000
v -0.250000 -0.000000 1.000000
v -0.245196 0.048772 1.000000
v -0.230970 0.095671 1.000000
v -0.207867 0.138892 1.000000
v -0.176777 0.176776 1.000000
v -0.138893 0.207867 1.000000
v -0.095671 0.230970 1.000000
v -0.048773 0.245196 1.000000
v 0.000000 -0.000000 1.250000
vn 0.0980 -0.9952 -0.0000
vn 0.2903 -0.9569 -0.0000
vn 0.4714 -0.8819 -0.0000
vn 0.6344 -0.7730 -0.0000
vn 0.7730 -0.6344 -0.0000
vn 0.8819 -0.4714 -0.0000
vn 0.9569 -0.2903 -0.0000
vn 0.9952 -0.0980 -0.0000
vn 0.9952 0.0980 -0.0000
vn 0.9569 0.2903 -0.0000
vn 0.8819 0.4714 -0.0000
vn 0.7730 0.6344 -0.0000
vn 0.6344 0.7730 -0.0000
vn 0.4714 0.8819 -0.0000
vn 0.2903 0.9569 -0.0000
vn 0.0980 0.9952 -0.0000
vn -0.0980 0.9952 -0.0000
vn -0.2903 0.9569 -0.0000
vn -0.4714 0.8819 -0.0000
vn -0.6344 0.7730 -0.0000
vn -0.7730 0.6344 -0.0000
vn -0.8819 0.4714 -0.0000
vn -0.9569 0.2903 -0.0000
vn -0.9952 0.0980 -0.0000
vn -0.9952 -0.0980 -0.0000
vn -0.9569 -0.2903 -0.0000
vn -0.8819 -0.4714 -0.0000
vn -0.7730 -0.6344 -0.0000
vn -0.6344 -0.7730 -0.0000
vn -0.4714 -0.8819 -0.0000
vn -0.0000 -0.0000 -1.0000
vn -0.2903 -0.9569 -0.0000
vn -0.0980 -0.9952 -0.0000
vn 0.0695 0.7054 0.7054
vn 0.2058 0.6783 0.7054
vn 0.3341 0.6251 0.7054
vn 0.4497 0.5479 0.7054
vn 0.5479 0.4497 0.7054
vn 0.6251 0.3341 0.7054
vn 0.6783 0.2058 0.7054
vn 0.7054 0.0695 0.7054
vn 0.7054 -0.0695 0.7054
vn 0.6783 -0.2058 0.7054
vn 0.6251 -0.3341 0.7054
vn 0.5479 -0.4497 0.7054
vn 0.4497 -0.5479 0.7054
vn 0.3341 -0.6251 0.7054
vn 0.2058 -0.6783 0.7054
vn 0.0695 -0.7054 0.7054
vn -0.0695 -0.7054 0.7054
vn -0.2058 -0.6783 0.7054
vn -0.3341 -0.6251 0.7054
vn -0.4497 -0.5479 0.7054
vn -0.5479 -0.4497 0.7054
vn -0.6251 -0.3341 0.7054
vn -0.6783 -0.2058 0.7054
vn -0.7054 -0.0695 0.7054
vn -0.7054 0.0695 0.7054
vn -0.6783 0.2058 0.7054
vn -0.6251 0.3341 0.7054
vn -0.5479 0.4497 0.7054
vn -0.4497 0.5479 0.7054
vn -0.3341 0.6251 0.7054
vn -0.2058 0.6783 0.7054
vn -0.0695 0.7054 0.7054
vt 1.000000 1.000000
vt 0.968750 0.500000
vt 1.000000 0.500000
vt 0.968750 1.000000
vt 0.937500 0.500000
vt 0.937500 1.000000
vt 0.906250 0.500000
vt 0.906250 1.000000
vt 0.875000 0.500000
vt 0.875000 1.000000
vt 0.843750 0.500000
vt 0.843750 1.000000
vt 0.812500 0.500000
vt 0.812500 1.000000
vt 0.781250 0.500000
vt 0.781250 1.000000
vt 0.750000 0.500000
vt 0.750000 1.000000
vt 0.718750 0.500000
vt 0.718750 1.000000
vt 0.687500 0.500000
vt 0.687500 1.000000
vt 0.656250 0.500000
vt 0.656250 1.000000
vt 0.625000 0.500000
vt 0.625000 1.000000
vt 0.593750 0.500000
vt 0.593750 1.000000
vt 0.562500 0.500000
vt 0.562500 1.000000
vt 0.531250 0.500000
vt 0.531250 1.000000
vt 0.500000 0.500000
vt 0.500000 1.000000
vt 0.468750 0.500000
vt 0.468750 1.000000
vt 0.437500 0.500000
vt 0.437500 1.000000
vt 0.406250 0.500000
vt 0.406250 1.000000
vt 0.375000 0.500000
vt 0.375000 1.000000
vt 0.343750 0.500000
vt 0.343750 1.000000
vt 0.312500 0.500000
vt 0.312500 1.000000
vt 0.281250 0.500000
vt 0.281250 1.000000
vt 0.250000 0.500000
vt 0.250000 1.000000
vt 0.218750 0.500000
vt 0.218750 1.000000
vt 0.187500 0.500000
vt 0.187500 1.000000
vt 0.156250 0.500000
vt 0.156250 1.000000
vt 0.125000 0.500000
vt 0.125000 1.000000
vt 0.093750 0.500000
vt 0.093750 1.000000
vt 0.062500 0.500000
vt 0.471731 0.341844
vt 0.341844 0.471731
vt 0.158156 0.028269
vt 0.062500 1.000000
vt 0.031250 0.500000
vt 0.031250 1.000000
vt 0.000000 0.500000
vt 0.250000 0.010000
vt 0.250000 0.490000
vt 0.250000 0.250000
vt 0.296822 0.485388
vt 0.383337 0.449553
vt 0.419706 0.419706
vt 0.449553 0.383337
vt 0.485388 0.296822
vt 0.490000 0.250000
vt 0.485388 0.203178
vt 0.471731 0.158156
vt 0.449553 0.116663
vt 0.419706 0.080294
vt 0.383337 0.050447
vt 0.341844 0.028269
vt 0.296822 0.014612
vt 0.203178 0.014612
vt 0.158156 0.028269
vt 0.116663 0.050447
vt 0.080294 0.080294
vt 0.050447 0.116663
vt 0.028269 0.158156
vt 0.014612 0.203178
vt 0.010000 0.250000
vt 0.014612 0.296822
vt 0.028269 0.341844
vt 0.050447 0.383337
vt 0.080294 0.419706
vt 0.116663 0.449553
vt 0.158156 0.471731
vt 0.203178 0.485388
vt 0.250000 0.490000
vt 0.116663 0.449553
vt 0.028269 0.341844
vt 0.080294 0.419706
vt 0.050447 0.383337
vt 0.014612 0.296822
vt 0.028269 0.158156
vt 0.014612 0.203178
vt 0.050447 0.116663
vt 0.080294 0.080294
vt 0.116663 0.050447
vt 0.203178 0.014612
vt 0.250000 0.010000
vt 0.296822 0.014612
vt 0.341844 0.028269
vt 0.383337 0.050447
vt 0.449553 0.116663
vt 0.449553 0.383337
vt 0.419706 0.419706
vt 0.000000 1.000000
s 0
f 2/1/1 3/2/1 1/3/1
f 4/4/2 5/5/2 3/2/2
f 6/6/3 7/7/3 5/5/3
f 8/8/4 9/9/4 7/7/4
f 10/10/5 11/11/5 9/9/5
f 12/12/6 13/13/6 11/11/6
f 14/14/7 15/15/7 13/13/7
f 16/16/8 17/17/8 15/15/8
f 18/18/9 19/19/9 17/17/9
f 20/20/10 21/21/10 19/19/10
f 22/22/11 23/23/11 21/21/11
f 24/24/12 25/25/12 23/23/12
f 26/26/13 27/27/13 25/25/13
f 28/28/14 29/29/14 27/27/14
f 30/30/15 31/31/15 29/29/15
f 32/32/16 33/33/16 31/31/16
f 34/34/17 35/35/17 33/33/17
f 36/36/18 37/37/18 35/35/18
f 38/38/19 39/39/19 37/37/19
f 40/40/20 41/41/20 39/39/20
f 42/42/21 43/43/21 41/41/21
f 44/44/22 45/45/22 43/43/22
f 46/46/23 47/47/23 45/45/23
f 48/48/24 49/49/24 47/47/24
f 50/50/25 51/51/25 49/49/25
f 52/52/26 53/53/26 51/51/26
f 54/54/27 55/55/27 53/53/27
f 56/56/28 57/57/28 55/55/28
f 58/58/29 59/59/29 57/57/29
f 60/60/30 61/61/30 59/59/30
f 14/62/31 6/63/31 38/64/31
f 62/65/32 63/66/32 61/61/32
f 64/67/33 1/68/33 63/66/33
f 81/69/31 63/66/31 1/68/31
f 65/70/34 97/71/34 66/72/34
f 66/72/35 97/71/35 67/63/35
f 67/63/36 97/71/36 68/73/36
f 68/73/37 97/71/37 69/74/37
f 69/74/38 97/71/38 70/75/38
f 70/75/39 97/71/39 71/62/39
f 71/62/40 97/71/40 72/76/40
f 72/76/41 97/71/41 73/77/41
f 73/77/42 97/71/42 74/78/42
f 74/78/43 97/71/43 75/79/43
f 75/79/44 97/71/44 76/80/44
f 76/80/45 97/71/45 77/81/45
f 77/81/46 97/71/46 78/82/46
f 78/82/47 97/71/47 79/83/47
f 79/83/48 97/71/48 80/84/48
f 80/84/49 97/71/49 81/69/49
f 81/69/50 97/71/50 82/85/50
f 82/85/51 97/71/51 83/86/51
f 83/86/52 97/71/52 84/87/52
f 84/87/53 97/71/53 85/88/53
f 85/88/54 97/71/54 86/89/54
f 86/89/55 97/71/55 87/90/55
f 87/90/56 97/71/56 88/91/56
f 88/91/57 97/71/57 89/92/57
f 89/92/58 97/71/58 90/93/58
f 90/93/59 97/71/59 91/94/59
f 91/94/60 97/71/60 92/95/60
f 92/95/61 97/71/61 93/96/61
f 93/96/62 97/71/62 94/97/62
f 94/97/63 97/71/63 95/98/63
f 82/85/31 61/61/31 63/66/31
f 95/98/64 97/71/64 96/99/64
f 96/99/65 97/71/65 65/70/65
f 84/87/31 61/61/31 83/86/31
f 85/88/31 59/59/31 84/87/31
f 86/89/31 57/57/31 85/88/31
f 87/90/31 55/55/31 86/89/31
f 88/91/31 53/53/31 87/90/31
f 89/92/31 51/51/31 88/91/31
f 89/92/31 47/47/31 49/49/31
f 90/93/31 45/45/31 47/47/31
f 91/94/31 43/43/31 45/45/31
f 92/95/31 41/41/31 43/43/31
f 94/97/31 41/41/31 93/96/31
f 95/98/31 39/39/31 94/97/31
f 96/99/31 37/37/31 95/98/31
f 65/70/31 35/35/31 96/99/31
f 66/72/31 33/33/31 65/70/31
f 67/63/31 31/31/31 66/72/31
f 68/73/31 29/29/31 67/63/31
f 68/73/31 25/25/31 27/27/31
f 70/75/31 25/25/31 69/74/31
f 71/62/31 23/23/31 70/75/31
f 71/62/31 19/19/31 21/21/31
f 73/77/31 19/19/31 72/76/31
f 74/78/31 17/17/31 73/77/31
f 75/79/31 15/15/31 74/78/31
f 76/80/31 13/13/31 75/79/31
f 77/81/31 11/11/31 76/80/31
f 78/82/31 9/9/31 77/81/31
f 79/83/31 7/7/31 78/82/31
f 80/84/31 5/5/31 79/83/31
f 81/69/31 3/2/31 80/84/31
f 2/1/1 4/4/1 3/2/1
f 4/4/2 6/6/2 5/5/2
f 6/6/3 8/8/3 7/7/3
f 8/8/4 10/10/4 9/9/4
f 10/10/5 12/12/5 11/11/5
f 12/12/6 14/14/6 13/13/6
f 14/14/7 16/16/7 15/15/7
f 16/16/8 18/18/8 17/17/8
f 18/18/9 20/20/9 19/19/9
f 20/20/10 22/22/10 21/21/10
f 22/22/11 24/24/11 23/23/11
f 24/24/12 26/26/12 25/25/12
f 26/26/13 28/28/13 27/27/13
f 28/28/14 30/30/14 29/29/14
f 30/30/15 32/32/15 31/31/15
f 32/32/16 34/34/16 33/33/16
f 34/34/17 36/36/17 35/35/17
f 36/36/18 38/38/18 37/37/18
f 38/38/19 40/40/19 39/39/19
f 40/40/20 42/42/20 41/41/20
f 42/42/21 44/44/21 43/43/21
f 44/44/22 46/46/22 45/45/22
f 46/46/23 48/48/23 47/47/23
f 48/48/24 50/50/24 49/49/24
f 50/50/25 52/52/25 51/51/25
f 52/52/26 54/54/26 53/53/26
f 54/54/27 56/56/27 55/55/27
f 56/56/28 58/58/28 57/57/28
f 58/58/29 60/60/29 59/59/29
f 60/60/30 62/65/30 61/61/30
f 6/63/31 4/72/31 62/98/31
f 4/72/31 2/100/31 62/98/31
f 2/100/31 64/99/31 62/98/31
f 62/98/31 60/101/31 54/102/31
f 60/101/31 58/103/31 54/102/31
f 58/103/31 56/104/31 54/102/31
f 54/102/31 52/105/31 46/106/31
f 52/105/31 50/92/31 46/106/31
f 50/92/31 48/107/31 46/106/31
f 46/106/31 44/108/31 42/109/31
f 42/109/31 40/110/31 46/106/31
f 40/110/31 38/64/31 46/106/31
f 38/64/31 36/111/31 34/112/31
f 34/112/31 32/113/31 38/64/31
f 32/113/31 30/114/31 38/64/31
f 30/114/31 28/115/31 26/81/31
f 26/81/31 24/116/31 30/114/31
f 24/116/31 22/79/31 30/114/31
f 22/79/31 20/78/31 14/62/31
f 20/78/31 18/77/31 14/62/31
f 18/77/31 16/76/31 14/62/31
f 14/62/31 12/117/31 6/63/31
f 12/117/31 10/118/31 6/63/31
f 10/118/31 8/73/31 6/63/31
f 6/63/31 62/98/31 38/64/31
f 62/98/31 54/102/31 38/64/31
f 54/102/31 46/106/31 38/64/31
f 38/64/31 30/114/31 22/79/31
f 22/79/31 14/62/31 38/64/31
f 62/65/32 64/67/32 63/66/32
f 64/67/33 2/119/33 1/68/33
f 81/69/31 82/85/31 63/66/31
f 82/85/31 83/86/31 61/61/31
f 84/87/31 59/59/31 61/61/31
f 85/88/31 57/57/31 59/59/31
f 86/89/31 55/55/31 57/57/31
f 87/90/31 53/53/31 55/55/31
f 88/91/31 51/51/31 53/53/31
f 89/92/31 49/49/31 51/51/31
f 89/92/31 90/93/31 47/47/31
f 90/93/31 91/94/31 45/45/31
f 91/94/31 92/95/31 43/43/31
f 92/95/31 93/96/31 41/41/31
f 94/97/31 39/39/31 41/41/31
f 95/98/31 37/37/31 39/39/31
f 96/99/31 35/35/31 37/37/31
f 65/70/31 33/33/31 35/35/31
f 66/72/31 31/31/31 33/33/31
f 67/63/31 29/29/31 31/31/31
f 68/73/31 27/27/31 29/29/31
f 68/73/31 69/74/31 25/25/31
f 70/75/31 23/23/31 25/25/31
f 71/62/31 21/21/31 23/23/31
f 71/62/31 72/76/31 19/19/31
f 73/77/31 17/17/31 19/19/31
f 74/78/31 15/15/31 17/17/31
f 75/79/31 13/13/31 15/15/31
f 76/80/31 11/11/31 13/13/31
f 77/81/31 9/9/31 11/11/31
f 78/82/31 7/7/31 9/9/31
f 79/83/31 5/5/31 7/7/31
f 80/84/31 3/2/31 5/5/31
f 81/69/31 1/3/31 3/2/31
