# Blender 4.1.1
# www.blender.org
mtllib circle.mtl
o Circle
v 0.250000 0.000000 -0.000000
v 0.248796 0.000000 -0.024504
v 0.245196 0.000000 -0.048773
v 0.239235 0.000000 -0.072571
v 0.230970 0.000000 -0.095671
v 0.220480 0.000000 -0.117849
v 0.207867 0.000000 -0.138893
v 0.193253 0.000000 -0.158598
v 0.176777 0.000000 -0.176777
v 0.158598 0.000000 -0.193253
v 0.138893 0.000000 -0.207867
v 0.117849 0.000000 -0.220480
v 0.095671 0.000000 -0.230970
v 0.072571 0.000000 -0.239235
v 0.048773 0.000000 -0.245196
v 0.024504 0.000000 -0.248796
v -0.000000 0.000000 -0.250000
v -0.024504 0.000000 -0.248796
v -0.048773 0.000000 -0.245196
v -0.072571 0.000000 -0.239235
v -0.095671 0.000000 -0.230970
v -0.117849 0.000000 -0.220480
v -0.138893 0.000000 -0.207867
v -0.158598 0.000000 -0.193253
v -0.176777 0.000000 -0.176777
v -0.193253 0.000000 -0.158598
v -0.207867 0.000000 -0.138893
v -0.220480 0.000000 -0.117849
v -0.230970 0.000000 -0.095671
v -0.239235 0.000000 -0.072571
v -0.245196 0.000000 -0.048773
v -0.248796 0.000000 -0.024504
v -0.250000 0.000000 0.000000
v -0.248796 0.000000 0.024504
v -0.245196 0.000000 0.048773
v -0.239235 0.000000 0.072571
v -0.230970 0.000000 0.095671
v -0.220480 0.000000 0.117849
v -0.207867 0.000000 0.138893
v -0.193253 0.000000 0.158598
v -0.176777 0.000000 0.176777
v -0.158598 0.000000 0.193253
v -0.138893 0.000000 0.207867
v -0.117849 0.000000 0.220480
v -0.095671 0.000000 0.230970
v -0.072571 0.000000 0.239235
v -0.048773 0.000000 0.245196
v -0.024504 0.000000 0.248796
v 0.000000 0.000000 0.250000
v 0.024504 0.000000 0.248796
v 0.048773 0.000000 0.245196
v 0.072571 0.000000 0.239235
v 0.095671 0.000000 0.230970
v 0.117849 0.000000 0.220480
v 0.138893 0.000000 0.207867
v 0.158598 0.000000 0.193253
v 0.176777 0.000000 0.176777
v 0.193253 0.000000 0.158598
v 0.207867 0.000000 0.138893
v 0.220480 0.000000 0.117849
v 0.230970 0.000000 0.095671
v 0.239235 0.000000 0.072571
v 0.245196 0.000000 0.048773
v 0.248796 0.000000 0.024504
vn -0.0000 1.0000 -0.0000
vt 0.336716 0.483918
vt 0.339079 0.532009
vt 0.336716 0.516082
vt 0.339079 0.467991
vt 0.342991 0.547628
vt 0.342991 0.452372
vt 0.348416 0.562788
vt 0.348416 0.437212
vt 0.355300 0.577344
vt 0.355300 0.422656
vt 0.363578 0.591154
vt 0.363578 0.408846
vt 0.373169 0.604087
vt 0.383982 0.383982
vt 0.383982 0.616018
vt 0.395913 0.373169
vt 0.395913 0.626831
vt 0.408846 0.636422
vt 0.408846 0.363578
vt 0.422656 0.644700
vt 0.422656 0.355300
vt 0.437212 0.651584
vt 0.437212 0.348416
vt 0.452372 0.657009
vt 0.452372 0.342991
vt 0.467991 0.660921
vt 0.467991 0.339079
vt 0.483918 0.663284
vt 0.483918 0.336716
vt 0.500000 0.664074
vt 0.500000 0.335926
vt 0.516082 0.663284
vt 0.516082 0.336716
vt 0.532009 0.660921
vt 0.532009 0.339079
vt 0.547628 0.657009
vt 0.547628 0.342991
vt 0.562788 0.651584
vt 0.577344 0.355300
vt 0.577344 0.644700
vt 0.591154 0.636422
vt 0.591154 0.363578
vt 0.604087 0.626831
vt 0.616018 0.383982
vt 0.616018 0.616018
vt 0.626831 0.604087
vt 0.626831 0.395913
vt 0.636422 0.591154
vt 0.636422 0.408846
vt 0.644700 0.577344
vt 0.644700 0.422656
vt 0.651584 0.562788
vt 0.651584 0.437212
vt 0.657009 0.547628
vt 0.657009 0.452372
vt 0.660921 0.532009
vt 0.660921 0.467991
vt 0.663284 0.516082
vt 0.335926 0.500000
vt 0.664074 0.500000
vt 0.663284 0.483918
vt 0.373169 0.395913
vt 0.562788 0.348416
vt 0.604087 0.373169
s 0
f 2/1/1 63/2/1 64/3/1
f 3/4/1 62/5/1 63/2/1
f 4/6/1 61/7/1 62/5/1
f 5/8/1 60/9/1 61/7/1
f 6/10/1 59/11/1 60/9/1
f 7/12/1 58/13/1 59/11/1
f 58/13/1 9/14/1 57/15/1
f 57/15/1 10/16/1 56/17/1
f 10/16/1 55/18/1 56/17/1
f 11/19/1 54/20/1 55/18/1
f 12/21/1 53/22/1 54/20/1
f 13/23/1 52/24/1 53/22/1
f 14/25/1 51/26/1 52/24/1
f 15/27/1 50/28/1 51/26/1
f 16/29/1 49/30/1 50/28/1
f 17/31/1 48/32/1 49/30/1
f 18/33/1 47/34/1 48/32/1
f 19/35/1 46/36/1 47/34/1
f 20/37/1 45/38/1 46/36/1
f 45/38/1 22/39/1 44/40/1
f 22/39/1 43/41/1 44/40/1
f 23/42/1 42/43/1 43/41/1
f 42/43/1 25/44/1 41/45/1
f 25/44/1 40/46/1 41/45/1
f 26/47/1 39/48/1 40/46/1
f 27/49/1 38/50/1 39/48/1
f 28/51/1 37/52/1 38/50/1
f 29/53/1 36/54/1 37/52/1
f 30/55/1 35/56/1 36/54/1
f 31/57/1 34/58/1 35/56/1
f 1/59/1 2/1/1 64/3/1
f 33/60/1 34/58/1 32/61/1
f 2/1/1 3/4/1 63/2/1
f 3/4/1 4/6/1 62/5/1
f 4/6/1 5/8/1 61/7/1
f 5/8/1 6/10/1 60/9/1
f 6/10/1 7/12/1 59/11/1
f 7/12/1 8/62/1 58/13/1
f 58/13/1 8/62/1 9/14/1
f 57/15/1 9/14/1 10/16/1
f 10/16/1 11/19/1 55/18/1
f 11/19/1 12/21/1 54/20/1
f 12/21/1 13/23/1 53/22/1
f 13/23/1 14/25/1 52/24/1
f 14/25/1 15/27/1 51/26/1
f 15/27/1 16/29/1 50/28/1
f 16/29/1 17/31/1 49/30/1
f 17/31/1 18/33/1 48/32/1
f 18/33/1 19/35/1 47/34/1
f 19/35/1 20/37/1 46/36/1
f 20/37/1 21/63/1 45/38/1
f 45/38/1 21/63/1 22/39/1
f 22/39/1 23/42/1 43/41/1
f 23/42/1 24/64/1 42/43/1
f 42/43/1 24/64/1 25/44/1
f 25/44/1 26/47/1 40/46/1
f 26/47/1 27/49/1 39/48/1
f 27/49/1 28/51/1 38/50/1
f 28/51/1 29/53/1 37/52/1
f 29/53/1 30/55/1 36/54/1
f 30/55/1 31/57/1 35/56/1
f 31/57/1 32/61/1 34/58/1
