# Blender 4.1.1
# www.blender.org
mtllib cross.mtl
o Plane
v 0.050000 0.000000 -0.050000
v -0.050000 0.000000 -0.050000
v 0.050000 0.000000 0.050000
v -0.050000 0.000000 0.050000
v 0.050000 0.000000 -0.500000
v -0.050000 0.000000 -0.500000
v -0.500000 0.000000 -0.050000
v -0.500000 0.000000 0.050000
v 0.500000 0.000000 -0.050000
v 0.500000 0.000000 0.050000
v 0.050000 0.000000 0.050000
v -0.050000 0.000000 0.050000
v 0.050000 0.000000 0.500000
v -0.050000 0.000000 0.500000
vn -0.0000 1.0000 -0.0000
vt 0.550000 0.550000
vt 0.550000 0.450000
vt 1.000000 0.450000
vt 1.000000 0.550000
vt 0.450000 0.450000
vt 0.450000 0.550000
vt 0.000000 0.550000
vt 0.000000 0.450000
vt 0.450000 0.000000
vt 0.550000 0.000000
vt 0.550000 1.000000
vt 0.450000 1.000000
s 0
f 4/1/1 2/2/1 7/3/1 8/4/1
f 1/5/1 3/6/1 10/7/1 9/8/1
f 5/9/1 6/10/1 14/11/1 13/12/1
l 11 3
l 4 12
