# Blender v2.91.0 OBJ File: ''
# www.blender.org
mtllib disc.mtl
o Torus
v 0.750000 0.000000 0.000000
v 0.625000 0.216506 0.000000
v 0.625000 -0.216506 0.000000
v 0.649519 0.000000 -0.375000
v 0.541266 0.216506 -0.312500
v 0.541266 -0.216506 -0.312500
v 0.375000 0.000000 -0.649519
v 0.312500 0.216506 -0.541266
v 0.312500 -0.216506 -0.541266
v 0.000000 0.000000 -0.750000
v 0.000000 0.216506 -0.625000
v 0.000000 -0.216506 -0.625000
v -0.375000 0.000000 -0.649519
v -0.312500 0.216506 -0.541266
v -0.312500 -0.216506 -0.541266
v -0.649519 0.000000 -0.375000
v -0.541266 0.216506 -0.312500
v -0.541266 -0.216506 -0.312500
v -0.750000 0.000000 -0.000000
v -0.625000 0.216506 -0.000000
v -0.625000 -0.216506 -0.000000
v -0.649519 0.000000 0.375000
v -0.541266 0.216506 0.312500
v -0.541266 -0.216506 0.312500
v -0.375000 0.000000 0.649519
v -0.312500 0.216506 0.541266
v -0.312500 -0.216506 0.541266
v 0.000000 0.000000 0.750000
v 0.000000 0.216506 0.625000
v 0.000000 -0.216506 0.625000
v 0.375000 0.000000 0.649519
v 0.312500 0.216506 0.541266
v 0.312500 -0.216506 0.541266
v 0.649519 0.000000 0.375000
v 0.541266 0.216506 0.312500
v 0.541266 -0.216506 0.312500
vt 0.583333 0.500000
vt 0.500000 0.666667
vt 0.500000 0.500000
vt 0.583333 0.333333
vt 0.500000 0.333333
vt 0.666667 0.666667
vt 0.583333 0.666667
vt 0.666667 0.333333
vt 0.666667 0.500000
vt 0.750000 0.666667
vt 0.750000 0.333333
vt 0.750000 0.500000
vt 0.833333 0.666667
vt 0.833333 0.333333
vt 0.916667 0.500000
vt 0.833333 0.500000
vt 0.916667 0.333333
vt 1.000000 0.500000
vt 0.916667 0.666667
vt 0.083333 0.500000
vt 0.000000 0.666667
vt 0.000000 0.500000
vt 0.083333 0.333333
vt 0.000000 0.333333
vt 0.166667 0.500000
vt 0.083333 0.666667
vt 0.250000 0.500000
vt 0.166667 0.666667
vt 0.166667 0.333333
vt 0.333333 0.500000
vt 0.250000 0.666667
vt 0.250000 0.333333
vt 0.416667 0.500000
vt 0.333333 0.666667
vt 0.416667 0.333333
vt 0.333333 0.333333
vt 0.416667 0.666667
vt 1.000000 0.666667
vt 1.000000 0.333333
vn 0.8436 0.4871 -0.2260
vn 0.8436 -0.4871 -0.2260
vn 0.6176 0.4871 -0.6176
vn 0.6176 -0.4871 -0.6176
vn 0.2260 0.4871 -0.8436
vn 0.2260 -0.4871 -0.8436
vn -0.2260 0.4871 -0.8436
vn -0.2260 -0.4871 -0.8436
vn -0.6176 0.4871 -0.6176
vn -0.6176 -0.4871 -0.6176
vn -0.8436 0.4871 -0.2260
vn -0.8436 -0.4871 -0.2260
vn -0.8436 0.4871 0.2260
vn -0.8436 -0.4871 0.2260
vn -0.6176 0.4871 0.6176
vn -0.6176 -0.4871 0.6176
vn -0.2260 0.4871 0.8436
vn -0.2260 -0.4871 0.8436
vn 0.2260 0.4871 0.8436
vn 0.2260 -0.4871 0.8436
vn 0.6176 0.4871 0.6176
vn 0.6176 -0.4871 0.6176
vn 0.8436 0.4871 0.2260
vn 0.0000 -1.0000 0.0000
vn 0.8436 -0.4871 0.2260
vn 0.0000 1.0000 0.0000
usemtl None
s off
f 4/1/1 2/2/1 1/3/1
f 6/4/2 1/3/2 3/5/2
f 4/1/3 8/6/3 5/7/3
f 9/8/4 4/1/4 6/4/4
f 7/9/5 11/10/5 8/6/5
f 12/11/6 7/9/6 9/8/6
f 10/12/7 14/13/7 11/10/7
f 15/14/8 10/12/8 12/11/8
f 16/15/9 14/13/9 13/16/9
f 18/17/10 13/16/10 15/14/10
f 19/18/11 17/19/11 16/15/11
f 18/17/12 19/18/12 16/15/12
f 22/20/13 20/21/13 19/22/13
f 24/23/14 19/22/14 21/24/14
f 25/25/15 23/26/15 22/20/15
f 24/23/16 25/25/16 22/20/16
f 28/27/17 26/28/17 25/25/17
f 27/29/18 28/27/18 25/25/18
f 31/30/19 29/31/19 28/27/19
f 30/32/20 31/30/20 28/27/20
f 34/33/21 32/34/21 31/30/21
f 36/35/22 31/30/22 33/36/22
f 1/3/23 35/37/23 34/33/23
f 27/29/24 15/14/24 3/5/24
f 3/5/25 34/33/25 36/35/25
f 4/1/1 5/7/1 2/2/1
f 6/4/2 4/1/2 1/3/2
f 4/1/3 7/9/3 8/6/3
f 9/8/4 7/9/4 4/1/4
f 7/9/5 10/12/5 11/10/5
f 12/11/6 10/12/6 7/9/6
f 10/12/7 13/16/7 14/13/7
f 15/14/8 13/16/8 10/12/8
f 16/15/9 17/19/9 14/13/9
f 18/17/10 16/15/10 13/16/10
f 19/18/11 20/38/11 17/19/11
f 18/17/12 21/39/12 19/18/12
f 22/20/13 23/26/13 20/21/13
f 24/23/14 22/20/14 19/22/14
f 25/25/15 26/28/15 23/26/15
f 24/23/16 27/29/16 25/25/16
f 28/27/17 29/31/17 26/28/17
f 27/29/18 30/32/18 28/27/18
f 31/30/19 32/34/19 29/31/19
f 30/32/20 33/36/20 31/30/20
f 34/33/21 35/37/21 32/34/21
f 8/6/26 20/21/26 32/34/26
f 36/35/22 34/33/22 31/30/22
f 1/3/23 2/2/23 35/37/23
f 3/5/25 1/3/25 34/33/25
f 3/5/24 36/35/24 33/36/24
f 33/36/24 30/32/24 27/29/24
f 27/29/24 24/23/24 21/24/24
f 21/24/24 18/17/24 15/14/24
f 15/14/24 12/11/24 9/8/24
f 9/8/24 6/4/24 15/14/24
f 6/4/24 3/5/24 15/14/24
f 3/5/24 33/36/24 27/29/24
f 27/29/24 21/24/24 15/14/24
f 32/34/26 35/37/26 2/2/26
f 2/2/26 5/7/26 8/6/26
f 8/6/26 11/10/26 20/21/26
f 11/10/26 14/13/26 20/21/26
f 14/13/26 17/19/26 20/21/26
f 20/21/26 23/26/26 26/28/26
f 26/28/26 29/31/26 32/34/26
f 32/34/26 2/2/26 8/6/26
f 20/21/26 26/28/26 32/34/26
