# Blender 4.1.1
# www.blender.org
mtllib shelve.mtl
o Shelves1
v 0.000000 0.000000 0.000000
v 0.000000 0.000000 -0.280000
v 0.000000 2.000000 -0.280000
v 0.000000 2.000000 0.000000
v -0.030000 0.000000 0.000000
v -0.030000 0.000000 -0.280000
v -0.030000 2.000000 -0.280000
v -0.030000 2.000000 0.000000
v -0.970000 0.000000 0.000000
v -0.970000 0.000000 -0.280000
v -0.970000 2.000000 -0.280000
v -0.970000 2.000000 0.000000
v -1.000000 0.000000 0.000000
v -1.000000 0.000000 -0.280000
v -1.000000 2.000000 -0.280000
v -1.000000 2.000000 0.000000
v -0.030000 0.070000 0.000000
v -0.030000 0.070000 -0.280000
v -0.030000 0.040000 -0.280000
v -0.030000 0.040000 0.000000
v -0.970000 0.070000 0.000000
v -0.970000 0.070000 -0.280000
v -0.970000 0.040000 -0.280000
v -0.970000 0.040000 0.000000
v -0.030000 0.444000 0.000000
v -0.030000 0.444000 -0.280000
v -0.030000 0.414000 -0.280000
v -0.030000 0.414000 0.000000
v -0.970000 0.444000 0.000000
v -0.970000 0.444000 -0.280000
v -0.970000 0.414000 -0.280000
v -0.970000 0.414000 0.000000
v -0.030000 0.818000 0.000000
v -0.030000 0.818000 -0.280000
v -0.030000 0.788000 -0.280000
v -0.030000 0.788000 0.000000
v -0.970000 0.818000 0.000000
v -0.970000 0.818000 -0.280000
v -0.970000 0.788000 -0.280000
v -0.970000 0.788000 0.000000
v -0.030000 1.192000 0.000000
v -0.030000 1.192000 -0.280000
v -0.030000 1.162000 -0.280000
v -0.030000 1.162000 0.000000
v -0.970000 1.192000 0.000000
v -0.970000 1.192000 -0.280000
v -0.970000 1.162000 -0.280000
v -0.970000 1.162000 0.000000
v -0.030000 1.566000 0.000000
v -0.030000 1.566000 -0.280000
v -0.030000 1.536000 -0.280000
v -0.030000 1.536000 0.000000
v -0.970000 1.566000 0.000000
v -0.970000 1.566000 -0.280000
v -0.970000 1.536000 -0.280000
v -0.970000 1.536000 0.000000
v -0.030000 1.940000 0.000000
v -0.030000 1.940000 -0.280000
v -0.030000 1.910000 -0.280000
v -0.030000 1.910000 0.000000
v -0.970000 1.940000 0.000000
v -0.970000 1.940000 -0.280000
v -0.970000 1.910000 -0.280000
v -0.970000 1.910000 0.000000
vn 1.0000 -0.0000 -0.0000
vn -1.0000 -0.0000 -0.0000
vn -0.0000 -0.0000 1.0000
vn -0.0000 -1.0000 -0.0000
vn -0.0000 1.0000 -0.0000
vn -0.0000 -0.0000 -1.0000
vt 1.000000 0.000000
vt 0.000000 1.000000
vt 0.000000 0.000000
vt 1.000000 1.000000
s 0
usemtl Shelves_material
f 2/1/1 4/2/1 1/3/1
f 8/1/2 6/2/2 5/3/2
f 4/1/3 5/2/3 1/3/3
f 5/1/4 2/2/4 1/3/4
f 3/1/5 8/2/5 4/3/5
f 6/1/6 3/2/6 2/3/6
f 10/1/1 12/2/1 9/3/1
f 16/1/2 14/2/2 13/3/2
f 12/1/3 13/2/3 9/3/3
f 13/1/4 10/2/4 9/3/4
f 11/1/5 16/2/5 12/3/5
f 14/1/6 11/2/6 10/3/6
f 20/1/1 18/2/1 17/3/1
f 22/1/2 24/2/2 21/3/2
f 21/1/3 20/2/3 17/3/3
f 18/1/5 21/2/5 17/3/5
f 24/1/4 19/2/4 20/3/4
f 19/1/6 22/2/6 18/3/6
f 28/1/1 26/2/1 25/3/1
f 30/1/2 32/2/2 29/3/2
f 29/1/3 28/2/3 25/3/3
f 26/1/5 29/2/5 25/3/5
f 32/1/4 27/2/4 28/3/4
f 27/1/6 30/2/6 26/3/6
f 36/1/1 34/2/1 33/3/1
f 38/1/2 40/2/2 37/3/2
f 37/1/3 36/2/3 33/3/3
f 34/1/5 37/2/5 33/3/5
f 40/1/4 35/2/4 36/3/4
f 35/1/6 38/2/6 34/3/6
f 44/1/1 42/2/1 41/3/1
f 46/1/2 48/2/2 45/3/2
f 45/1/3 44/2/3 41/3/3
f 42/1/5 45/2/5 41/3/5
f 48/1/4 43/2/4 44/3/4
f 43/1/6 46/2/6 42/3/6
f 52/1/1 50/2/1 49/3/1
f 54/1/2 56/2/2 53/3/2
f 53/1/3 52/2/3 49/3/3
f 50/1/5 53/2/5 49/3/5
f 56/1/4 51/2/4 52/3/4
f 51/1/6 54/2/6 50/3/6
f 60/1/1 58/2/1 57/3/1
f 62/1/2 64/2/2 61/3/2
f 61/1/3 60/2/3 57/3/3
f 58/1/5 61/2/5 57/3/5
f 64/1/4 59/2/4 60/3/4
f 59/1/6 62/2/6 58/3/6
f 2/1/1 3/4/1 4/2/1
f 8/1/2 7/4/2 6/2/2
f 4/1/3 8/4/3 5/2/3
f 5/1/4 6/4/4 2/2/4
f 3/1/5 7/4/5 8/2/5
f 6/1/6 7/4/6 3/2/6
f 10/1/1 11/4/1 12/2/1
f 16/1/2 15/4/2 14/2/2
f 12/1/3 16/4/3 13/2/3
f 13/1/4 14/4/4 10/2/4
f 11/1/5 15/4/5 16/2/5
f 14/1/6 15/4/6 11/2/6
f 20/1/1 19/4/1 18/2/1
f 22/1/2 23/4/2 24/2/2
f 21/1/3 24/4/3 20/2/3
f 18/1/5 22/4/5 21/2/5
f 24/1/4 23/4/4 19/2/4
f 19/1/6 23/4/6 22/2/6
f 28/1/1 27/4/1 26/2/1
f 30/1/2 31/4/2 32/2/2
f 29/1/3 32/4/3 28/2/3
f 26/1/5 30/4/5 29/2/5
f 32/1/4 31/4/4 27/2/4
f 27/1/6 31/4/6 30/2/6
f 36/1/1 35/4/1 34/2/1
f 38/1/2 39/4/2 40/2/2
f 37/1/3 40/4/3 36/2/3
f 34/1/5 38/4/5 37/2/5
f 40/1/4 39/4/4 35/2/4
f 35/1/6 39/4/6 38/2/6
f 44/1/1 43/4/1 42/2/1
f 46/1/2 47/4/2 48/2/2
f 45/1/3 48/4/3 44/2/3
f 42/1/5 46/4/5 45/2/5
f 48/1/4 47/4/4 43/2/4
f 43/1/6 47/4/6 46/2/6
f 52/1/1 51/4/1 50/2/1
f 54/1/2 55/4/2 56/2/2
f 53/1/3 56/4/3 52/2/3
f 50/1/5 54/4/5 53/2/5
f 56/1/4 55/4/4 51/2/4
f 51/1/6 55/4/6 54/2/6
f 60/1/1 59/4/1 58/2/1
f 62/1/2 63/4/2 64/2/2
f 61/1/3 64/4/3 60/2/3
f 58/1/5 62/4/5 61/2/5
f 64/1/4 63/4/4 59/2/4
f 59/1/6 63/4/6 62/2/6
