# Blender v2.91.0 OBJ File: 'PGA.blend'
# www.blender.org
mtllib torus.mtl
o Torus.001
v 0.625000 0.000000 0.000000
v 0.562500 0.108253 0.000000
v 0.437500 0.108253 0.000000
v 0.375000 0.000000 0.000000
v 0.437500 -0.108253 0.000000
v 0.562500 -0.108253 0.000000
v 0.541266 0.000000 -0.312500
v 0.487139 0.108253 -0.281250
v 0.378886 0.108253 -0.218750
v 0.324759 0.000000 -0.187500
v 0.378886 -0.108253 -0.218750
v 0.487139 -0.108253 -0.281250
v 0.312500 0.000000 -0.541266
v 0.281250 0.108253 -0.487139
v 0.218750 0.108253 -0.378886
v 0.187500 0.000000 -0.324760
v 0.218750 -0.108253 -0.378886
v 0.281250 -0.108253 -0.487139
v 0.000000 0.000000 -0.625000
v 0.000000 0.108253 -0.562500
v 0.000000 0.108253 -0.437500
v 0.000000 0.000000 -0.375000
v 0.000000 -0.108253 -0.437500
v 0.000000 -0.108253 -0.562500
v -0.312500 0.000000 -0.541266
v -0.281250 0.108253 -0.487139
v -0.218750 0.108253 -0.378886
v -0.187500 0.000000 -0.324760
v -0.218750 -0.108253 -0.378886
v -0.281250 -0.108253 -0.487139
v -0.541266 0.000000 -0.312500
v -0.487139 0.108253 -0.281250
v -0.378886 0.108253 -0.218750
v -0.324759 0.000000 -0.187500
v -0.378886 -0.108253 -0.218750
v -0.487139 -0.108253 -0.281250
v -0.625000 0.000000 -0.000000
v -0.562500 0.108253 -0.000000
v -0.437500 0.108253 -0.000000
v -0.375000 0.000000 -0.000000
v -0.437500 -0.108253 -0.000000
v -0.562500 -0.108253 -0.000000
v -0.541266 0.000000 0.312500
v -0.487139 0.108253 0.281250
v -0.378886 0.108253 0.218750
v -0.324760 0.000000 0.187500
v -0.378886 -0.108253 0.218750
v -0.487139 -0.108253 0.281250
v -0.312500 0.000000 0.541266
v -0.281250 0.108253 0.487139
v -0.218750 0.108253 0.378886
v -0.187500 0.000000 0.324760
v -0.218750 -0.108253 0.378886
v -0.281250 -0.108253 0.487139
v 0.000000 0.000000 0.625000
v 0.000000 0.108253 0.562500
v 0.000000 0.108253 0.437500
v 0.000000 0.000000 0.375000
v 0.000000 -0.108253 0.437500
v 0.000000 -0.108253 0.562500
v 0.312500 0.000000 0.541266
v 0.281250 0.108253 0.487139
v 0.218750 0.108253 0.378886
v 0.187500 0.000000 0.324760
v 0.218750 -0.108253 0.378886
v 0.281250 -0.108253 0.487139
v 0.541266 0.000000 0.312500
v 0.487139 0.108253 0.281250
v 0.378886 0.108253 0.218750
v 0.324759 0.000000 0.187500
v 0.378886 -0.108253 0.218750
v 0.487139 -0.108253 0.281250
vt 0.500000 0.500000
vt 0.583333 0.666667
vt 0.500000 0.666667
vt 0.500000 0.833333
vt 0.583333 1.000000
vt 0.500000 1.000000
vt 0.583333 -0.000000
vt 0.500000 0.166667
vt 0.500000 -0.000000
vt 0.583333 0.333333
vt 0.500000 0.333333
vt 0.583333 0.500000
vt 0.666667 0.500000
vt 0.666667 0.833333
vt 0.583333 0.833333
vt 0.666667 1.000000
vt 0.666667 -0.000000
vt 0.583333 0.166667
vt 0.666667 0.166667
vt 0.666667 0.333333
vt 0.750000 0.500000
vt 0.666667 0.666667
vt 0.750000 0.666667
vt 0.750000 0.833333
vt 0.750000 -0.000000
vt 0.750000 0.166667
vt 0.750000 0.333333
vt 0.833333 0.666667
vt 0.833333 0.833333
vt 0.750000 1.000000
vt 0.833333 -0.000000
vt 0.833333 0.166667
vt 0.833333 0.333333
vt 0.916667 0.500000
vt 0.833333 0.500000
vt 0.916667 0.666667
vt 0.916667 0.833333
vt 0.833333 1.000000
vt 0.916667 -0.000000
vt 0.916667 0.166667
vt 0.916667 0.333333
vt 1.000000 0.666667
vt 1.000000 0.833333
vt 0.916667 1.000000
vt 1.000000 -0.000000
vt 1.000000 0.166667
vt 1.000000 0.333333
vt 0.083333 0.500000
vt 0.000000 0.666667
vt 0.000000 0.500000
vt 0.083333 0.666667
vt 0.000000 0.833333
vt 0.083333 0.833333
vt 0.000000 1.000000
vt 0.083333 -0.000000
vt 0.000000 0.166667
vt 0.000000 -0.000000
vt 0.083333 0.166667
vt 0.000000 0.333333
vt 0.083333 0.333333
vt 0.166667 0.500000
vt 0.166667 0.833333
vt 0.083333 1.000000
vt 0.166667 -0.000000
vt 0.166667 0.166667
vt 0.250000 0.500000
vt 0.166667 0.666667
vt 0.250000 0.666667
vt 0.250000 0.833333
vt 0.166667 1.000000
vt 0.250000 -0.000000
vt 0.250000 0.166667
vt 0.166667 0.333333
vt 0.250000 0.333333
vt 0.333333 0.500000
vt 0.333333 0.666667
vt 0.333333 0.833333
vt 0.250000 1.000000
vt 0.333333 -0.000000
vt 0.333333 0.166667
vt 0.333333 0.333333
vt 0.416667 0.500000
vt 0.416667 0.666667
vt 0.416667 0.833333
vt 0.333333 1.000000
vt 0.416667 0.166667
vt 0.416667 0.333333
vt 0.416667 1.000000
vt 0.416667 -0.000000
vt 1.000000 0.500000
vt 1.000000 1.000000
vn 0.8436 0.4871 -0.2260
vn 0.0000 1.0000 0.0000
vn -0.8436 0.4871 0.2260
vn -0.8436 -0.4871 0.2260
vn 0.0000 -1.0000 0.0000
vn 0.8436 -0.4871 -0.2260
vn 0.6176 0.4871 -0.6176
vn -0.6176 0.4871 0.6176
vn -0.6176 -0.4871 0.6176
vn 0.6176 -0.4871 -0.6176
vn 0.2260 0.4871 -0.8436
vn -0.2260 0.4871 0.8436
vn -0.2260 -0.4871 0.8436
vn 0.2260 -0.4871 -0.8436
vn -0.2260 0.4871 -0.8436
vn 0.2260 0.4871 0.8436
vn 0.2260 -0.4871 0.8436
vn -0.2260 -0.4871 -0.8436
vn -0.6176 0.4871 -0.6176
vn 0.6176 0.4871 0.6176
vn 0.6176 -0.4871 0.6176
vn -0.6176 -0.4871 -0.6176
vn -0.8436 0.4871 -0.2260
vn 0.8436 0.4871 0.2260
vn 0.8436 -0.4871 0.2260
vn -0.8436 -0.4871 -0.2260
usemtl None
s off
f 1/1/1 8/2/1 2/3/1
f 8/2/2 3/4/2 2/3/2
f 3/4/3 10/5/3 4/6/3
f 10/7/4 5/8/4 4/9/4
f 5/8/5 12/10/5 6/11/5
f 6/11/6 7/12/6 1/1/6
f 13/13/7 8/2/7 7/12/7
f 8/2/2 15/14/2 9/15/2
f 9/15/8 16/16/8 10/5/8
f 16/17/9 11/18/9 10/7/9
f 17/19/5 12/10/5 11/18/5
f 18/20/10 7/12/10 12/10/10
f 19/21/11 14/22/11 13/13/11
f 20/23/2 15/14/2 14/22/2
f 21/24/12 16/16/12 15/14/12
f 22/25/13 17/19/13 16/17/13
f 23/26/5 18/20/5 17/19/5
f 24/27/14 13/13/14 18/20/14
f 19/21/15 26/28/15 20/23/15
f 26/28/2 21/24/2 20/23/2
f 27/29/16 22/30/16 21/24/16
f 28/31/17 23/26/17 22/25/17
f 29/32/5 24/27/5 23/26/5
f 30/33/18 19/21/18 24/27/18
f 31/34/19 26/28/19 25/35/19
f 32/36/2 27/29/2 26/28/2
f 33/37/20 28/38/20 27/29/20
f 34/39/21 29/32/21 28/31/21
f 35/40/5 30/33/5 29/32/5
f 36/41/22 25/35/22 30/33/22
f 31/34/23 38/42/23 32/36/23
f 32/36/2 39/43/2 33/37/2
f 39/43/24 34/44/24 33/37/24
f 40/45/25 35/40/25 34/39/25
f 41/46/5 36/41/5 35/40/5
f 42/47/26 31/34/26 36/41/26
f 43/48/3 38/49/3 37/50/3
f 44/51/2 39/52/2 38/49/2
f 45/53/1 40/54/1 39/52/1
f 46/55/6 41/56/6 40/57/6
f 47/58/5 42/59/5 41/56/5
f 48/60/4 37/50/4 42/59/4
f 49/61/8 44/51/8 43/48/8
f 44/51/2 51/62/2 45/53/2
f 51/62/7 46/63/7 45/53/7
f 52/64/10 47/58/10 46/55/10
f 53/65/5 48/60/5 47/58/5
f 48/60/9 49/61/9 43/48/9
f 55/66/12 50/67/12 49/61/12
f 56/68/2 51/62/2 50/67/2
f 57/69/11 52/70/11 51/62/11
f 58/71/14 53/65/14 52/64/14
f 59/72/5 54/73/5 53/65/5
f 60/74/13 49/61/13 54/73/13
f 61/75/16 56/68/16 55/66/16
f 62/76/2 57/69/2 56/68/2
f 63/77/15 58/78/15 57/69/15
f 64/79/18 59/72/18 58/71/18
f 65/80/5 60/74/5 59/72/5
f 66/81/17 55/66/17 60/74/17
f 67/82/20 62/76/20 61/75/20
f 68/83/2 63/77/2 62/76/2
f 69/84/19 64/85/19 63/77/19
f 64/79/22 71/86/22 65/80/22
f 65/80/5 72/87/5 66/81/5
f 72/87/21 61/75/21 66/81/21
f 67/82/24 2/3/24 68/83/24
f 68/83/2 3/4/2 69/84/2
f 3/4/23 70/88/23 69/84/23
f 4/9/26 71/86/26 70/89/26
f 5/8/5 72/87/5 71/86/5
f 72/87/25 1/1/25 67/82/25
f 1/1/1 7/12/1 8/2/1
f 8/2/2 9/15/2 3/4/2
f 3/4/3 9/15/3 10/5/3
f 10/7/4 11/18/4 5/8/4
f 5/8/5 11/18/5 12/10/5
f 6/11/6 12/10/6 7/12/6
f 13/13/7 14/22/7 8/2/7
f 8/2/2 14/22/2 15/14/2
f 9/15/8 15/14/8 16/16/8
f 16/17/9 17/19/9 11/18/9
f 17/19/5 18/20/5 12/10/5
f 18/20/10 13/13/10 7/12/10
f 19/21/11 20/23/11 14/22/11
f 20/23/2 21/24/2 15/14/2
f 21/24/12 22/30/12 16/16/12
f 22/25/13 23/26/13 17/19/13
f 23/26/5 24/27/5 18/20/5
f 24/27/14 19/21/14 13/13/14
f 19/21/15 25/35/15 26/28/15
f 26/28/2 27/29/2 21/24/2
f 27/29/16 28/38/16 22/30/16
f 28/31/17 29/32/17 23/26/17
f 29/32/5 30/33/5 24/27/5
f 30/33/18 25/35/18 19/21/18
f 31/34/19 32/36/19 26/28/19
f 32/36/2 33/37/2 27/29/2
f 33/37/20 34/44/20 28/38/20
f 34/39/21 35/40/21 29/32/21
f 35/40/5 36/41/5 30/33/5
f 36/41/22 31/34/22 25/35/22
f 31/34/23 37/90/23 38/42/23
f 32/36/2 38/42/2 39/43/2
f 39/43/24 40/91/24 34/44/24
f 40/45/25 41/46/25 35/40/25
f 41/46/5 42/47/5 36/41/5
f 42/47/26 37/90/26 31/34/26
f 43/48/3 44/51/3 38/49/3
f 44/51/2 45/53/2 39/52/2
f 45/53/1 46/63/1 40/54/1
f 46/55/6 47/58/6 41/56/6
f 47/58/5 48/60/5 42/59/5
f 48/60/4 43/48/4 37/50/4
f 49/61/8 50/67/8 44/51/8
f 44/51/2 50/67/2 51/62/2
f 51/62/7 52/70/7 46/63/7
f 52/64/10 53/65/10 47/58/10
f 53/65/5 54/73/5 48/60/5
f 48/60/9 54/73/9 49/61/9
f 55/66/12 56/68/12 50/67/12
f 56/68/2 57/69/2 51/62/2
f 57/69/11 58/78/11 52/70/11
f 58/71/14 59/72/14 53/65/14
f 59/72/5 60/74/5 54/73/5
f 60/74/13 55/66/13 49/61/13
f 61/75/16 62/76/16 56/68/16
f 62/76/2 63/77/2 57/69/2
f 63/77/15 64/85/15 58/78/15
f 64/79/18 65/80/18 59/72/18
f 65/80/5 66/81/5 60/74/5
f 66/81/17 61/75/17 55/66/17
f 67/82/20 68/83/20 62/76/20
f 68/83/2 69/84/2 63/77/2
f 69/84/19 70/88/19 64/85/19
f 64/79/22 70/89/22 71/86/22
f 65/80/5 71/86/5 72/87/5
f 72/87/21 67/82/21 61/75/21
f 67/82/24 1/1/24 2/3/24
f 68/83/2 2/3/2 3/4/2
f 3/4/23 4/6/23 70/88/23
f 4/9/26 5/8/26 71/86/26
f 5/8/5 6/11/5 72/87/5
f 72/87/25 6/11/25 1/1/25
